<?xml version="1.0" standalone="no"?>
<!DOCTYPE svg PUBLIC "-//W3C//DTD SVG 20010904//EN"
 "http://www.w3.org/TR/2001/REC-SVG-20010904/DTD/svg10.dtd">
<svg version="1.0" xmlns="http://www.w3.org/2000/svg"
 width="894.000000pt" height="894.000000pt" viewBox="0 0 894.000000 894.000000"
 preserveAspectRatio="xMidYMid meet">
<metadata>
Created by potrace 1.11, written by Peter Selinger 2001-2013
</metadata>
<g transform="translate(0.000000,894.000000) scale(0.100000,-0.100000)"
fill="#000000" stroke="none">
<path d="M793 8732 c-32 -27 -32 -28 -27 -102 3 -41 7 -93 9 -115 2 -22 4 -62
4 -89 1 -27 4 -47 7 -43 5 5 25 144 39 272 4 33 9 67 11 77 8 28 -10 28 -43 0z"/>
<path d="M1427 8613 c-3 -5 -60 -102 -127 -217 l-122 -209 7 -176 c4 -97 8
-203 10 -236 2 -33 6 -127 10 -210 4 -82 8 -151 10 -153 1 -2 7 23 13 55 6 32
27 146 47 253 20 107 42 231 50 275 17 95 21 113 41 225 40 214 72 400 68 400
-1 0 -5 -3 -7 -7z"/>
<path d="M7505 8585 c7 -45 16 -95 45 -245 22 -116 21 -115 51 -284 11 -66 22
-122 24 -126 2 -3 6 -26 10 -50 3 -25 10 -63 15 -85 5 -22 11 -60 15 -85 3
-25 10 -61 15 -80 5 -19 11 -48 14 -65 14 -82 29 -156 31 -153 2 2 6 80 10
173 3 94 8 206 10 250 2 44 7 141 10 215 l5 135 -125 215 c-69 117 -128 216
-131 220 -3 3 -3 -13 1 -35z"/>
<path d="M8060 8585 c-1 -11 -3 -31 -5 -45 -1 -14 -6 -52 -9 -85 -3 -33 -8
-79 -12 -102 -5 -37 -1 -50 32 -103 45 -74 57 -83 50 -39 -3 19 -8 59 -11 89
-3 30 -7 71 -10 90 -21 156 -32 221 -35 195z"/>
<path d="M862 8553 c0 -18 -9 -103 -17 -153 -2 -14 -7 -50 -10 -80 -3 -30 -8
-72 -11 -92 -3 -21 -2 -38 3 -38 16 0 85 119 79 137 -2 10 -8 47 -11 83 -3 36
-8 74 -10 85 -2 11 -4 32 -4 48 -1 15 -5 27 -10 27 -6 0 -9 -8 -9 -17z"/>
<path d="M974 8233 c5 -17 60 -256 72 -313 3 -14 23 -101 44 -195 22 -93 42
-189 46 -212 9 -58 20 -55 18 5 -1 26 -5 137 -9 247 -4 110 -9 223 -10 250 -2
28 -4 75 -4 105 l-1 56 -75 37 c-87 43 -88 43 -81 20z"/>
<path d="M7888 8215 c-36 -19 -69 -38 -72 -43 -5 -9 -13 -132 -21 -342 -3 -80
-8 -193 -10 -252 -3 -60 -4 -108 -1 -108 4 0 49 180 62 247 2 12 26 119 54
237 46 204 65 297 58 296 -2 -1 -33 -16 -70 -35z"/>
<path d="M889 8179 c-80 -123 -78 -117 -62 -161 22 -63 254 -561 270 -578 12
-13 12 -11 5 15 -9 28 -28 106 -36 150 -6 29 -39 177 -77 340 -17 77 -39 173
-48 214 l-17 74 -35 -54z"/>
<path d="M7971 8041 c-24 -102 -43 -189 -43 -193 1 -4 -4 -22 -9 -40 -5 -18
-21 -85 -35 -148 -32 -144 -33 -149 -40 -184 -2 -16 -7 -33 -10 -38 -3 -4 -2
-8 1 -8 6 0 41 72 145 295 18 39 59 126 91 194 33 67 59 126 59 129 0 6 -74
124 -100 158 -15 20 -18 12 -59 -165z"/>
<path d="M1760 8062 c-52 -81 -119 -185 -150 -232 -31 -47 -65 -101 -77 -120
l-22 -35 33 -93 c18 -51 36 -93 41 -93 8 0 80 183 210 541 35 96 63 175 62
177 -1 1 -45 -64 -97 -145z"/>
<path d="M7080 8199 c0 -7 226 -613 240 -644 5 -11 14 -33 20 -50 10 -27 13
-28 21 -12 17 29 59 159 59 180 0 11 -10 34 -23 51 -13 17 -26 38 -30 46 -4 8
-34 56 -66 105 -33 50 -87 133 -121 185 -64 100 -99 149 -100 139z"/>
<path d="M1367 7945 c-3 -11 -8 -38 -12 -60 -10 -54 -9 -50 -55 -308 -23 -125
-40 -232 -38 -238 2 -5 24 30 51 78 26 49 69 128 96 177 l48 89 -24 88 c-40
145 -59 197 -66 174z"/>
<path d="M7550 7926 c-5 -15 -10 -31 -10 -35 0 -5 -14 -53 -31 -107 -27 -89
-29 -101 -16 -124 8 -14 34 -61 57 -105 92 -172 143 -251 126 -197 -3 9 -8 35
-11 57 -4 22 -17 101 -30 175 -13 74 -26 149 -29 165 -5 26 -12 62 -32 165 -7
35 -12 36 -24 6z"/>
<path d="M1413 7493 c-87 -153 -134 -245 -128 -251 5 -6 240 134 253 151 10
12 -45 207 -58 207 -4 0 -34 -48 -67 -107z"/>
<path d="M7427 7518 c-14 -46 -28 -92 -31 -103 -5 -18 13 -32 127 -100 72 -43
136 -81 141 -83 5 -3 -10 30 -34 74 -96 178 -164 294 -170 294 -4 0 -19 -37
-33 -82z"/>
<path d="M1397 7245 c-163 -99 -170 -104 -158 -119 4 -6 14 -28 21 -50 12 -38
66 -163 130 -304 21 -45 36 -68 41 -60 3 7 14 54 23 103 9 50 18 101 21 115 3
13 7 40 10 60 5 35 10 61 20 110 2 14 7 39 10 55 3 17 7 39 9 51 7 37 17 124
14 123 -2 0 -65 -38 -141 -84z"/>
<path d="M7400 7293 c5 -21 11 -60 15 -88 3 -27 7 -57 10 -65 2 -8 6 -31 9
-50 3 -19 17 -100 31 -180 15 -80 29 -160 32 -177 10 -61 5 -70 144 251 38 88
68 160 67 161 -6 6 -310 185 -313 185 -1 0 1 -17 5 -37z"/>
<path d="M1577 7173 c-10 -16 -69 -340 -91 -495 l-13 -87 55 -73 c66 -88 173
-218 179 -218 3 0 2 12 -1 28 -3 15 -8 52 -11 82 -4 30 -8 66 -10 80 -2 14 -9
61 -15 105 -6 44 -13 91 -15 105 -2 14 -15 104 -29 200 -14 96 -30 196 -34
222 -5 26 -7 50 -4 53 3 3 3 5 -1 5 -3 0 -8 -3 -10 -7z"/>
<path d="M7350 7162 c0 -5 -16 -116 -35 -247 -19 -132 -37 -257 -40 -278 -3
-21 -7 -51 -9 -66 -6 -34 -14 -95 -21 -151 -3 -25 -8 -63 -11 -85 l-5 -40 26
30 c62 73 184 233 198 260 14 28 14 39 1 105 -8 41 -17 89 -19 105 -3 17 -10
55 -15 85 -9 51 -13 67 -24 125 -2 11 -9 53 -16 93 -7 39 -17 72 -22 72 -4 0
-8 -4 -8 -8z"/>
<path d="M1644 7134 c2 -10 7 -41 10 -69 4 -27 8 -61 11 -75 2 -14 7 -47 10
-75 3 -27 10 -77 15 -110 5 -33 12 -82 15 -110 4 -27 8 -57 10 -65 2 -8 7 -35
10 -60 9 -73 36 -233 41 -253 7 -23 8 -21 77 134 l47 106 -117 289 c-108 269
-138 336 -129 288z"/>
<path d="M7274 7113 c-8 -21 -63 -156 -121 -300 l-105 -263 20 -42 c11 -24 37
-78 57 -122 19 -43 38 -76 41 -73 7 7 30 122 39 197 3 30 8 62 10 70 4 14 10
56 20 127 2 15 11 80 20 143 9 63 18 138 21 165 3 28 9 69 14 93 4 23 6 42 4
42 -2 0 -11 -17 -20 -37z"/>
<path d="M772 6972 l-32 -18 32 -31 c39 -36 418 -338 468 -372 31 -21 29 -18
-16 30 -247 265 -391 409 -407 409 -7 -1 -27 -9 -45 -18z"/>
<path d="M7944 6824 c-87 -92 -163 -172 -169 -179 -5 -6 -32 -35 -60 -64 l-50
-54 46 34 c143 104 472 371 477 386 3 10 -56 43 -78 43 -4 0 -78 -75 -166
-166z"/>
<path d="M732 6869 c2 -8 20 -71 38 -141 33 -125 35 -127 69 -141 20 -8 117
-47 216 -86 99 -40 198 -81 220 -91 22 -9 51 -20 65 -24 l25 -7 -25 22 c-25
22 -400 321 -520 415 -82 64 -95 72 -88 53z"/>
<path d="M8095 6800 c-55 -44 -104 -83 -110 -87 -223 -177 -405 -326 -402
-329 5 -5 532 208 545 221 5 4 61 192 71 238 5 20 6 37 2 37 -3 -1 -51 -36
-106 -80z"/>
<path d="M3525 6430 c2 -91 4 -219 4 -284 1 -117 5 -139 15 -81 3 17 15 86 26
154 25 143 25 136 -28 311 l-21 65 4 -165z"/>
<path d="M5407 6573 c-3 -5 -17 -56 -32 -115 -25 -102 -27 -134 -11 -218 1 -8
8 -55 16 -105 7 -49 16 -94 21 -99 4 -4 8 56 9 135 1 79 3 204 4 277 1 72 1
132 -1 132 -1 0 -4 -3 -6 -7z"/>
<path d="M1872 6393 c-59 -129 -75 -171 -69 -188 5 -13 326 -175 347 -175 5 0
-14 44 -42 98 -129 251 -183 352 -189 352 -3 0 -24 -39 -47 -87z"/>
<path d="M7004 6462 c-36 -56 -215 -415 -212 -423 5 -15 348 158 348 174 0 20
-107 261 -117 264 -4 2 -13 -5 -19 -15z"/>
<path d="M1012 6443 c20 -16 46 -35 58 -43 12 -8 28 -20 34 -25 6 -6 63 -48
126 -95 63 -47 117 -87 120 -90 3 -4 32 -25 65 -49 l60 -42 17 40 c9 22 21 56
27 76 9 33 8 37 -12 44 -13 5 -43 18 -67 29 -76 35 -442 182 -453 182 -5 0 6
-12 25 -27z"/>
<path d="M7790 6409 c-415 -171 -389 -159 -380 -183 28 -72 51 -116 59 -116 6
0 111 75 233 168 122 92 227 170 232 174 6 4 8 9 6 12 -3 2 -70 -22 -150 -55z"/>
<path d="M2300 6248 l0 -117 61 -36 c33 -21 62 -35 65 -33 4 4 -52 140 -112
273 -12 27 -13 20 -14 -87z"/>
<path d="M6612 6308 c-47 -101 -103 -240 -98 -245 3 -3 32 11 65 32 l61 36 0
110 c0 60 -2 109 -4 109 -2 0 -13 -19 -24 -42z"/>
<path d="M1552 6155 l-30 -74 31 -6 c39 -6 265 -35 392 -50 28 -4 58 -9 68
-11 9 -3 17 -3 17 1 0 7 -266 135 -416 201 l-32 13 -30 -74z"/>
<path d="M7190 6156 c-85 -40 -185 -87 -222 -104 -38 -17 -68 -34 -68 -36 0
-3 6 -4 13 -1 6 2 41 7 77 10 98 10 113 12 269 34 79 12 146 23 148 25 6 5
-38 119 -51 132 -8 9 -50 -6 -166 -60z"/>
<path d="M1650 6003 c0 -11 541 -303 560 -303 5 0 8 19 5 43 -2 23 -7 74 -10
112 -6 70 -13 87 -37 91 -7 1 -53 7 -103 14 -49 6 -101 13 -115 15 -14 2 -52
7 -85 10 -33 3 -67 8 -75 10 -35 10 -140 16 -140 8z"/>
<path d="M2400 6005 c0 -4 36 -56 80 -115 l80 -107 107 -23 c59 -12 114 -25
120 -27 7 -3 13 -1 13 4 0 5 -84 65 -187 133 -104 68 -194 128 -200 133 -7 5
-13 6 -13 2z"/>
<path d="M7170 5999 c-25 -4 -72 -10 -105 -13 -60 -7 -98 -12 -145 -21 -14 -2
-49 -7 -79 -11 -89 -10 -98 -16 -105 -71 -12 -85 -15 -183 -6 -183 12 0 469
245 544 291 l31 20 -45 -3 c-25 -1 -65 -5 -90 -9z"/>
<path d="M6455 5954 c-267 -171 -368 -243 -312 -221 8 3 31 9 49 12 18 3 40 7
48 9 8 2 43 9 77 16 l61 14 77 103 c43 57 76 106 74 108 -3 2 -36 -16 -74 -41z"/>
<path d="M2256 5853 c4 -32 8 -65 10 -73 1 -8 3 -32 3 -52 1 -49 12 -49 131 1
l92 39 -88 54 c-49 30 -104 63 -122 72 l-32 17 6 -58z"/>
<path d="M6625 5878 c-27 -17 -78 -49 -113 -71 l-64 -40 92 -39 c97 -40 115
-44 125 -29 6 11 19 211 14 211 -2 0 -26 -14 -54 -32z"/>
<path d="M3568 5723 l-27 -26 65 -128 c36 -71 69 -131 73 -133 5 -3 2 18 -5
47 -8 29 -24 99 -37 156 -12 58 -27 106 -33 108 -5 2 -21 -9 -36 -24z"/>
<path d="M5321 5728 c-7 -21 -18 -66 -55 -235 -7 -35 -10 -63 -6 -63 7 0 94
179 116 240 11 32 10 37 -9 58 -11 12 -24 22 -29 22 -5 0 -12 -10 -17 -22z"/>
<path d="M2426 5686 c-108 -48 -108 -47 -11 -91 100 -46 187 -85 224 -101 20
-9 51 -22 70 -30 18 -8 36 -13 38 -10 7 6 -195 263 -211 269 -7 3 -57 -14
-110 -37z"/>
<path d="M6379 5703 c-14 -16 -48 -57 -75 -93 -27 -36 -51 -67 -54 -70 -3 -3
-21 -24 -39 -48 l-33 -43 28 7 c27 7 189 79 342 151 73 35 72 37 -43 83 -44
17 -85 33 -90 36 -6 2 -22 -8 -36 -23z"/>
<path d="M2710 5694 c1 -12 475 -333 494 -334 9 0 -132 162 -235 270 -9 10
-62 26 -125 40 -60 12 -115 25 -121 27 -7 3 -13 1 -13 -3z"/>
<path d="M6155 5685 c-33 -8 -85 -19 -117 -25 -54 -12 -59 -16 -151 -119 -52
-58 -105 -117 -118 -131 -52 -58 -63 -73 -49 -65 33 18 457 306 485 329 34 29
32 29 -50 11z"/>
<path d="M6001 5471 c-139 -93 -258 -174 -264 -180 -5 -5 41 6 104 26 63 20
139 44 169 53 51 16 61 24 133 116 87 111 120 154 115 154 -2 0 -117 -76 -257
-169z"/>
<path d="M2701 5609 c6 -12 48 -67 94 -123 l83 -101 152 -48 c83 -27 154 -46
156 -44 3 3 -14 18 -38 34 -346 235 -447 303 -452 303 -4 0 -2 -10 5 -21z"/>
<path d="M3694 5617 c3 -10 19 -79 36 -155 17 -75 35 -152 42 -171 l11 -34 19
24 c55 70 55 68 -16 197 -66 118 -103 175 -92 139z"/>
<path d="M3070 5603 c0 -13 206 -241 269 -298 l22 -19 -6 84 c-4 47 -8 94 -10
105 -1 11 -3 30 -4 41 -1 16 -11 24 -38 32 -21 6 -74 20 -118 32 -44 11 -88
23 -97 26 -10 3 -18 2 -18 -3z"/>
<path d="M3507 5583 c-4 -15 -22 -100 -41 -188 -27 -121 -32 -161 -23 -167 13
-9 267 -7 272 2 5 8 -181 374 -192 377 -6 2 -13 -9 -16 -24z"/>
<path d="M5217 5588 c-9 -12 -43 -70 -76 -128 l-59 -104 21 -31 c29 -41 47
-58 53 -52 5 4 27 84 39 137 33 143 43 195 40 198 -2 2 -10 -7 -18 -20z"/>
<path d="M5396 5577 c-19 -33 -89 -173 -145 -287 l-32 -65 133 -3 c72 -1 138
0 145 2 8 4 11 15 8 28 -47 215 -78 344 -84 350 -3 4 -14 -7 -25 -25z"/>
<path d="M5845 5605 c-5 -2 -55 -15 -110 -30 -146 -38 -139 -30 -150 -191 -7
-94 -6 -95 14 -85 11 6 24 17 28 25 4 7 44 53 89 102 170 186 176 194 129 179z"/>
<path d="M2445 5328 c-9 -26 -13 -138 -6 -143 9 -5 202 53 214 64 5 5 -29 24
-75 43 -112 48 -127 52 -133 36z"/>
<path d="M6368 5298 c-54 -23 -95 -45 -90 -49 7 -6 105 -37 184 -57 20 -6 39
-8 41 -5 5 4 2 41 -8 113 -2 14 -4 28 -4 33 -2 13 -25 7 -123 -35z"/>
<path d="M2575 5194 c-44 -13 -92 -27 -107 -30 -16 -4 -28 -8 -28 -9 0 -7 34
-83 94 -208 41 -86 71 -137 78 -135 17 6 21 29 54 268 17 130 17 140 2 139 -7
0 -49 -11 -93 -25z"/>
<path d="M2739 5213 c0 -4 -2 -15 -4 -23 -6 -30 -14 -76 -20 -115 -9 -63 -17
-119 -20 -136 -2 -8 -6 -40 -9 -70 -4 -30 -8 -69 -11 -86 -2 -18 0 -33 6 -33
24 0 492 279 493 294 1 5 -87 43 -194 86 -226 89 -240 94 -241 83z"/>
<path d="M6070 5178 c-52 -22 -144 -60 -203 -85 -85 -35 -105 -48 -97 -58 18
-22 470 -285 489 -285 7 0 10 7 7 18 -3 9 -8 42 -11 72 -3 30 -8 66 -10 80
-13 84 -25 161 -30 200 -11 85 -16 100 -33 99 -9 -1 -60 -19 -112 -41z"/>
<path d="M6254 5199 c5 -26 13 -73 21 -134 17 -125 39 -252 45 -263 8 -16 148
263 165 328 6 24 2 26 -82 52 -48 15 -103 31 -121 34 -31 6 -33 5 -28 -17z"/>
<path d="M3510 5162 c0 -8 10 -15 126 -81 51 -29 93 -47 102 -44 30 10 202
117 202 125 0 4 -97 8 -215 8 -118 0 -215 -3 -215 -8z"/>
<path d="M5000 5162 c0 -7 139 -97 187 -121 18 -9 30 -8 55 5 57 28 153 88
156 96 2 4 10 8 18 8 9 0 13 4 9 10 -7 11 -425 13 -425 2z"/>
<path d="M3962 5109 c-45 -27 -82 -52 -82 -54 0 -7 38 -1 182 25 105 19 125
25 110 35 -16 11 -108 45 -122 45 -3 0 -43 -23 -88 -51z"/>
<path d="M4808 5136 c-74 -28 -77 -33 -26 -41 69 -11 92 -14 118 -20 28 -5 95
-16 128 -20 34 -5 11 19 -60 60 -77 45 -92 47 -160 21z"/>
<path d="M4362 5061 c-11 -6 -11 -20 -3 -67 6 -32 13 -77 16 -99 4 -22 8 -47
10 -55 2 -8 7 -33 10 -55 3 -23 7 -52 10 -65 3 -13 7 -42 10 -65 3 -22 8 -47
10 -55 2 -8 7 -31 10 -50 12 -80 28 -161 31 -158 1 2 5 19 9 38 3 19 9 55 14
80 10 49 29 150 35 190 3 21 27 146 42 225 19 97 23 129 18 136 -7 11 -205 12
-222 0z"/>
<path d="M4140 5044 c-41 -7 -88 -16 -105 -19 -16 -3 -46 -8 -65 -11 -19 -3
-73 -13 -120 -22 l-85 -17 3 -30 c5 -53 71 -308 82 -319 8 -8 21 1 47 29 86
94 131 144 178 199 28 33 55 64 60 70 27 29 105 124 105 128 0 7 -18 6 -100
-8z"/>
<path d="M4766 4968 c43 -51 87 -102 97 -113 10 -11 62 -71 115 -132 66 -77
100 -109 107 -102 13 13 95 342 86 351 -3 4 -35 12 -71 18 -81 14 -165 28
-210 35 -19 3 -57 10 -85 16 -27 5 -65 12 -84 15 l-34 6 79 -94z"/>
<path d="M4639 5030 c-4 -23 -8 -42 -18 -90 -6 -30 -13 -68 -15 -85 -3 -16
-26 -153 -51 -304 -25 -150 -44 -275 -42 -277 4 -4 265 126 367 183 30 17 79
43 108 58 29 15 54 30 56 34 4 6 -36 62 -87 121 -12 14 -47 54 -77 90 -30 35
-59 70 -65 76 -5 6 -32 37 -60 69 -91 104 -115 130 -116 125z"/>
<path d="M4270 4997 c-76 -68 -384 -437 -373 -447 25 -24 520 -286 527 -279 2
2 1 24 -4 49 -4 25 -11 65 -14 90 -7 48 -12 85 -22 140 -4 19 -8 46 -10 60 -1
14 -7 51 -13 83 -6 31 -15 83 -21 115 -17 100 -38 204 -42 208 -2 2 -15 -7
-28 -19z"/>
<path d="M2990 4860 c-135 -82 -249 -151 -255 -153 -5 -2 -8 -7 -5 -10 5 -5
124 -31 196 -43 20 -3 46 -8 58 -10 73 -15 356 -66 379 -69 17 -1 27 2 27 10
0 7 -24 84 -54 171 -81 236 -87 254 -94 253 -4 0 -117 -67 -252 -149z"/>
<path d="M5679 4983 c-30 -79 -129 -383 -129 -397 0 -12 6 -15 23 -11 18 4
186 34 287 51 107 19 254 47 300 57 l55 12 -30 21 c-32 22 -340 208 -437 263
l-58 32 -11 -28z"/>
<path d="M3370 4810 c33 -94 60 -174 61 -178 1 -14 58 179 61 205 3 23 -5 33
-52 65 -30 20 -72 46 -92 58 l-37 21 59 -171z"/>
<path d="M5524 4918 c-92 -61 -91 -57 -46 -201 l27 -88 49 143 c61 180 66 198
57 198 -4 0 -43 -24 -87 -52z"/>
<path d="M5177 4755 c-14 -61 -28 -121 -31 -135 -2 -14 -5 -29 -6 -35 -5 -24
4 -36 75 -89 91 -68 88 -77 40 156 -50 236 -47 232 -78 103z"/>
<path d="M3727 4843 c-12 -20 -78 -345 -75 -370 3 -22 7 -20 73 30 66 49 70
55 67 88 -4 62 -57 265 -65 252z"/>
<path d="M3628 4716 c-31 -32 -86 -94 -121 -137 l-38 -47 58 -51 c32 -27 59
-47 60 -43 7 18 60 292 57 292 -1 0 -9 -6 -16 -14z"/>
<path d="M5295 4700 c3 -19 8 -42 10 -50 2 -8 7 -31 10 -50 3 -19 13 -65 21
-103 l16 -67 59 51 59 51 -29 37 c-16 20 -57 65 -90 101 l-61 65 5 -35z"/>
<path d="M2792 4580 c122 -112 233 -200 251 -200 28 0 277 126 277 140 0 7
-141 36 -360 75 -47 9 -107 20 -135 26 -27 6 -61 12 -75 15 -20 4 -11 -8 42
-56z"/>
<path d="M6170 4633 c-20 -4 -485 -96 -537 -107 -7 -1 -15 -5 -18 -8 -7 -7
260 -138 281 -138 8 0 66 42 127 94 147 123 194 166 182 165 -5 -1 -21 -4 -35
-6z"/>
<path d="M3810 4491 c-9 -3 -48 -28 -88 -55 -60 -40 -70 -51 -62 -66 11 -21
323 -321 328 -315 3 3 -116 331 -150 412 -9 21 -18 28 -28 24z"/>
<path d="M5095 4452 c-10 -26 -24 -60 -31 -77 -7 -16 -33 -84 -58 -150 -24
-66 -49 -133 -55 -148 -9 -23 -8 -27 3 -20 33 18 335 316 330 324 -8 14 -104
83 -140 102 l-32 16 -17 -47z"/>
<path d="M3275 4428 c-60 -28 -119 -57 -130 -64 -18 -13 -17 -14 15 -15 19 0
44 -2 55 -4 11 -2 45 -6 75 -7 l55 -3 23 64 c12 35 21 68 20 72 -2 5 -52 -15
-113 -43z"/>
<path d="M3895 4463 c4 -10 11 -29 15 -43 4 -14 39 -110 78 -215 68 -182 114
-327 125 -390 11 -62 78 -369 81 -373 2 -2 7 5 10 15 3 10 52 171 109 358 57
187 107 351 110 365 6 25 -1 30 -146 104 -84 44 -193 101 -244 127 -50 27
-103 53 -118 59 -24 9 -26 8 -20 -7z"/>
<path d="M4845 4385 c-99 -52 -217 -113 -261 -136 l-81 -41 22 -82 c67 -237
203 -656 214 -656 4 0 27 89 50 198 58 264 81 340 176 595 45 119 77 217 71
217 -6 -1 -92 -43 -191 -95z"/>
<path d="M5554 4449 c3 -17 15 -51 26 -75 l19 -45 53 6 c29 4 78 10 108 13
l55 7 -128 63 c-71 34 -131 62 -134 62 -3 0 -3 -14 1 -31z"/>
<path d="M3491 4317 c-30 -13 -56 -27 -58 -33 -2 -5 28 -41 67 -79 l70 -69 1
44 c1 25 3 71 5 103 5 67 0 69 -85 34z"/>
<path d="M5365 4329 c-10 -16 -1 -169 10 -169 13 0 135 110 135 122 0 19 -135
64 -145 47z"/>
<path d="M4470 4156 c0 -3 -20 -72 -45 -153 -25 -82 -54 -175 -64 -208 -10
-33 -33 -109 -51 -170 -17 -60 -42 -145 -55 -188 -12 -42 -20 -79 -16 -82 7
-4 184 -13 384 -20 101 -3 107 -2 107 17 0 10 -30 117 -66 236 -36 119 -75
246 -86 282 -11 36 -22 74 -25 85 -2 11 -9 29 -13 40 -5 11 -19 51 -31 88 -12
37 -26 70 -30 73 -5 3 -9 3 -9 0z"/>
<path d="M3634 3983 c3 -32 8 -67 10 -78 2 -11 7 -42 10 -70 15 -114 15 -114
230 -349 44 -49 84 -94 88 -100 14 -22 20 7 34 169 3 39 7 88 9 110 3 22 7 76
11 120 3 44 7 92 8 107 3 23 -2 29 -28 37 -17 5 -96 29 -176 54 -80 24 -158
47 -174 51 l-28 7 6 -58z"/>
<path d="M5245 4025 c-27 -7 -108 -32 -180 -55 -71 -23 -137 -44 -146 -47 -12
-3 -15 -15 -14 -46 6 -92 16 -224 20 -262 2 -22 7 -70 10 -107 6 -70 14 -120
19 -126 2 -1 34 32 72 74 38 43 78 87 89 98 11 12 50 55 87 97 58 65 68 82 73
125 4 27 13 92 21 144 8 52 14 101 14 108 0 14 1 14 -65 -3z"/>
<path d="M4069 3700 c0 -19 -2 -42 -3 -50 -2 -8 -6 -58 -10 -110 -4 -52 -9
-119 -13 -148 l-6 -53 49 5 c27 2 54 5 60 5 11 1 2 80 -22 181 -3 14 -8 36
-10 50 -22 127 -43 184 -45 120z"/>
<path d="M4847 3688 c-4 -18 -16 -76 -27 -128 -11 -52 -23 -108 -26 -125 -3
-16 -7 -42 -10 -57 -2 -16 -1 -28 3 -28 5 0 32 -3 62 -6 l53 -7 -6 49 c-3 27
-8 74 -10 104 -15 184 -19 216 -26 223 -4 5 -10 -7 -13 -25z"/>
<path d="M3775 3425 c30 -88 64 -211 77 -274 l24 -114 50 129 c27 71 49 132
49 135 0 8 -100 122 -186 213 l-67 70 53 -159z"/>
<path d="M5144 3512 c-34 -37 -89 -99 -123 -139 l-61 -71 47 -121 c26 -66 51
-117 55 -113 4 4 9 19 12 35 2 15 7 35 10 45 3 9 7 29 10 44 9 52 48 184 82
281 20 54 34 100 32 102 -2 2 -31 -26 -64 -63z"/>
<path d="M4247 3182 c13 -64 26 -132 29 -151 3 -19 10 -46 16 -60 5 -14 9 -28
8 -31 0 -3 5 -38 12 -77 11 -70 13 -73 42 -78 17 -4 82 -5 145 -3 l115 4 67
239 c36 132 64 243 60 247 -8 9 -139 18 -347 23 l-171 4 24 -117z"/>
<path d="M4111 3222 c-24 -20 -69 -60 -99 -88 l-55 -51 57 -101 c58 -102 86
-138 86 -111 1 8 13 98 29 202 15 103 27 187 27 187 -1 0 -21 -17 -45 -38z"/>
<path d="M4794 3194 c12 -115 45 -336 50 -342 4 -3 20 24 114 187 l26 44 -60
54 c-32 30 -76 68 -98 85 l-38 31 6 -59z"/>
<path d="M5160 3210 c-2 -80 -11 -237 -15 -247 -2 -6 33 -45 78 -85 45 -40 99
-89 121 -108 21 -19 44 -39 50 -45 134 -120 177 -157 181 -154 3 4 -302 497
-378 609 -32 47 -37 51 -37 30z"/>
<path d="M3674 3074 c-135 -207 -259 -405 -312 -499 -9 -15 101 75 194 160 6
5 61 55 123 110 l113 99 -7 136 c-4 74 -8 137 -10 139 -2 2 -48 -64 -101 -145z"/>
<path d="M4187 3123 c-4 -21 -9 -56 -12 -78 -4 -22 -12 -77 -19 -123 -21 -130
-22 -126 55 -130 l67 -3 -14 64 c-16 78 -18 89 -40 202 -20 105 -29 121 -37
68z"/>
<path d="M4745 3078 c-20 -56 -73 -273 -69 -279 3 -5 32 -9 65 -9 l60 0 -6 33
c-4 28 -15 98 -32 207 -3 19 -5 41 -6 48 0 6 -2 12 -4 12 -2 0 -6 -6 -8 -12z"/>
<path d="M5039 2798 c-58 -115 -152 -230 -236 -289 -50 -35 -110 -47 -246 -48
l-59 -1 7 -62 c4 -35 8 -79 10 -98 2 -19 9 -82 15 -140 14 -136 19 -175 25
-230 3 -25 7 -65 10 -90 6 -63 44 -404 51 -465 3 -27 7 -70 10 -95 2 -25 6
-64 9 -87 10 -81 23 -201 30 -278 6 -57 15 -138 20 -175 2 -14 9 -74 16 -135
14 -135 24 -156 33 -79 4 33 9 68 11 79 2 11 7 40 10 65 3 25 8 52 10 60 2 8
6 38 10 65 5 41 35 235 50 321 2 12 7 48 10 80 4 33 9 68 11 79 2 11 11 67 19
125 9 58 18 121 21 140 3 19 12 76 19 125 8 50 17 110 20 135 3 25 10 70 15
100 5 30 12 75 15 100 9 62 16 111 20 140 5 28 43 293 51 350 2 19 6 44 9 55
2 11 7 43 10 70 4 28 8 57 10 65 2 8 7 49 11 90 3 41 8 78 11 83 2 4 2 7 -1 7
-3 0 -20 -28 -37 -62z"/>
<path d="M5160 2854 c0 -5 5 -27 10 -49 5 -22 11 -51 14 -65 2 -14 32 -155 66
-315 34 -159 64 -301 66 -314 3 -13 25 -119 50 -235 24 -116 47 -224 50 -239
4 -17 10 -25 15 -20 10 10 82 221 164 478 31 99 66 207 76 240 l20 60 -38 34
c-79 71 -254 225 -302 266 -13 11 -31 27 -40 35 -50 49 -151 131 -151 124z"/>
<path d="M3740 2829 c-14 -12 -41 -35 -60 -52 -19 -18 -69 -61 -110 -97 -70
-61 -110 -96 -185 -165 -16 -15 -51 -46 -77 -68 -29 -24 -48 -49 -48 -61 1
-53 238 -783 250 -769 5 7 29 100 44 178 3 11 27 128 55 260 28 132 54 251 56
265 3 14 8 36 11 50 3 14 7 36 10 50 3 14 10 45 16 70 5 25 12 59 15 75 2 17
9 48 15 70 5 22 12 51 14 65 3 14 7 32 9 40 3 8 7 33 11 55 3 22 8 43 11 48 8
14 -12 6 -37 -14z"/>
<path d="M3864 2825 c7 -48 25 -166 31 -210 3 -22 10 -71 16 -110 5 -38 12
-88 15 -110 3 -22 9 -65 15 -95 5 -30 11 -75 14 -100 3 -25 7 -56 10 -70 8
-42 14 -83 20 -130 3 -25 7 -56 10 -69 2 -13 7 -49 11 -80 3 -31 8 -58 9 -61
2 -3 7 -33 10 -65 4 -33 9 -69 11 -80 2 -11 11 -67 19 -125 24 -162 25 -168
31 -207 3 -21 9 -63 14 -93 5 -30 12 -75 15 -100 3 -25 10 -70 15 -100 6 -30
12 -76 15 -101 3 -26 8 -58 10 -70 3 -13 8 -44 11 -69 3 -25 7 -52 9 -60 2 -8
8 -51 15 -95 7 -44 14 -87 15 -95 2 -8 4 -28 5 -45 l2 -30 8 26 c4 15 11 62
14 105 4 44 9 86 11 94 2 8 6 42 9 75 4 33 9 76 11 95 3 19 7 55 10 80 2 25 6
68 10 95 11 94 34 290 40 350 3 33 8 74 10 90 9 70 19 164 29 270 4 33 13 119
21 190 8 72 17 153 20 180 3 28 8 66 10 85 22 186 26 248 18 253 -4 3 -40 8
-80 11 -39 4 -92 10 -116 15 -114 21 -237 139 -332 317 -35 65 -47 77 -41 39z"/>
<path d="M3806 2745 c-20 -87 -29 -128 -71 -330 -25 -121 -59 -281 -75 -355
-16 -74 -45 -216 -65 -315 -20 -99 -41 -197 -46 -218 -11 -40 -6 -53 59 -168
10 -19 120 -214 244 -434 340 -604 318 -566 318 -537 0 12 -7 64 -15 115 -8
50 -17 109 -19 130 -5 38 -43 299 -51 347 -2 14 -7 45 -10 70 -3 25 -7 52 -10
60 -2 8 -6 35 -9 60 -3 25 -15 106 -26 180 -11 74 -23 153 -26 175 -2 22 -9
65 -14 95 -5 30 -12 75 -15 100 -3 25 -8 56 -10 70 -10 61 -46 308 -50 340 -5
33 -14 98 -20 130 -1 8 -6 40 -10 70 -4 30 -9 64 -11 75 -2 10 -6 37 -9 60 -3
22 -11 69 -16 105 -6 36 -13 85 -16 109 -3 24 -9 55 -13 70 l-7 26 -7 -30z"/>
<path d="M5119 2764 c0 -5 -2 -20 -5 -34 -6 -39 -25 -161 -30 -199 -2 -19 -6
-46 -9 -60 -4 -28 -20 -131 -30 -196 -3 -22 -7 -53 -10 -70 -3 -16 -7 -48 -10
-70 -3 -22 -7 -51 -10 -65 -2 -14 -7 -42 -10 -62 -3 -21 -7 -53 -10 -70 -3
-18 -16 -112 -30 -208 -14 -96 -28 -186 -30 -200 -3 -14 -9 -59 -15 -101 -6
-41 -13 -86 -15 -100 -4 -20 -30 -198 -40 -274 -7 -48 -37 -248 -40 -268 -5
-23 -6 -28 -35 -235 -27 -190 -26 -199 8 -137 16 28 113 201 217 385 104 184
204 364 224 400 19 36 63 114 96 174 l62 108 -37 182 c-21 99 -50 237 -65 306
-14 69 -28 136 -31 150 -3 14 -18 88 -34 165 -16 77 -32 151 -34 165 -10 56
-68 315 -72 319 -2 2 -4 0 -5 -5z"/>
<path d="M4493 1923 c1 -18 5 -33 9 -33 10 0 9 19 -2 45 -7 16 -9 14 -7 -12z"/>
<path d="M4429 1865 c-1 -19 -2 -38 -3 -42 -1 -5 -6 -37 -10 -73 -4 -36 -9
-76 -11 -90 -2 -14 -7 -59 -10 -100 -4 -41 -8 -82 -10 -90 -2 -8 -6 -44 -9
-80 -4 -36 -9 -81 -11 -100 -2 -19 -6 -57 -9 -85 -10 -91 -17 -160 -21 -185
-2 -14 -6 -59 -10 -100 -4 -41 -8 -86 -10 -100 -2 -14 -7 -54 -10 -90 -3 -36
-8 -78 -10 -95 -3 -16 -9 -77 -15 -135 -6 -58 -13 -116 -15 -130 -2 -14 -6
-54 -10 -90 l-6 -65 96 -95 95 -95 0 938 c0 515 -2 937 -5 937 -3 0 -6 -16 -6
-35z"/>
<path d="M4490 948 l-1 -933 66 65 c93 91 127 136 128 168 0 30 -12 159 -18
182 -2 8 -7 49 -11 90 -3 41 -8 86 -9 100 -2 14 -6 54 -9 90 -3 36 -8 81 -11
100 -2 19 -7 58 -9 85 -5 46 -11 106 -36 335 -5 47 -12 110 -15 140 -4 30 -8
66 -10 80 -2 14 -7 59 -10 100 -4 41 -9 82 -10 90 -1 8 -6 49 -10 90 -5 41 -9
84 -11 95 -1 11 -3 28 -3 38 -1 9 -5 17 -10 17 -6 0 -10 -373 -11 -932z"/>
</g>
</svg>
