<?xml version="1.0" standalone="no"?>
<!DOCTYPE svg PUBLIC "-//W3C//DTD SVG 20010904//EN"
 "http://www.w3.org/TR/2001/REC-SVG-20010904/DTD/svg10.dtd">
<svg version="1.0" xmlns="http://www.w3.org/2000/svg"
 width="640.000000pt" height="640.000000pt" viewBox="0 0 640.000000 640.000000"
 preserveAspectRatio="xMidYMid meet">
<metadata>
Created by potrace 1.15, written by Peter Selinger 2001-2017
</metadata>
<g transform="translate(0.000000,640.000000) scale(0.100000,-0.100000)"
fill="#000000" stroke="none">
<path d="M1671 5748 c-6 -7 -25 -33 -41 -58 -50 -77 -105 -130 -134 -130 -20
0 -29 -7 -37 -27 -5 -15 -19 -33 -30 -41 -19 -13 -20 -21 -14 -77 5 -47 2 -72
-10 -101 -27 -65 -47 -66 -90 -4 -20 29 -24 43 -17 57 12 22 -20 69 -39 57
-16 -9 -5 -138 16 -187 19 -47 19 -81 -2 -139 -16 -46 -16 -49 3 -75 11 -16
23 -36 27 -45 3 -9 29 -48 56 -86 28 -39 51 -73 51 -76 0 -21 60 -90 100 -116
27 -17 70 -53 97 -81 26 -27 57 -50 68 -50 17 -1 17 -2 3 -6 -16 -4 -15 -9 9
-41 36 -48 142 -151 185 -179 72 -48 108 -64 108 -49 0 7 -13 16 -29 19 -37 8
-50 41 -26 67 38 41 85 32 85 -16 0 -17 -4 -22 -15 -18 -9 4 -15 0 -15 -10 0
-10 6 -13 15 -9 13 5 14 2 4 -21 -10 -21 -10 -29 1 -39 10 -10 12 -9 7 6 -5
12 -1 17 14 17 22 0 49 -22 49 -39 0 -14 27 -14 35 -1 9 14 41 12 54 -4 6 -7
12 -31 13 -53 0 -23 9 -51 19 -64 18 -24 18 -23 12 34 -3 31 -4 57 -1 57 2 0
31 -13 63 -30 34 -17 74 -30 96 -30 47 0 140 -52 163 -91 25 -42 5 -69 -49
-69 -49 0 -89 -25 -82 -51 8 -31 -15 -34 -40 -5 -21 24 -25 26 -38 12 -14 -14
-12 -17 17 -32 18 -9 36 -22 40 -28 12 -19 -16 -26 -40 -10 -13 9 -26 13 -29
10 -8 -8 57 -67 67 -61 11 7 40 -34 40 -55 0 -12 -8 -15 -35 -12 -27 3 -35 9
-35 25 0 20 -2 19 -28 -6 -15 -15 -34 -27 -40 -27 -25 0 7 -39 62 -75 59 -39
66 -41 66 -22 0 9 15 14 45 15 28 2 45 -2 45 -9 0 -6 -9 -9 -20 -6 -13 3 -20
0 -20 -10 0 -9 -6 -13 -15 -9 -21 8 -19 -8 5 -29 11 -10 20 -22 20 -27 0 -5
14 -23 31 -40 16 -17 33 -43 36 -59 7 -37 21 -37 28 -1 4 15 10 35 16 44 13
24 11 40 -3 36 -7 -3 -15 -15 -18 -28 -6 -24 -6 -24 -28 8 -21 29 -22 33 -7
55 8 13 12 26 9 30 -12 11 59 67 78 61 10 -3 18 -1 18 5 0 6 -4 11 -10 11 -5
0 -10 7 -10 15 0 9 9 15 24 15 13 0 30 10 39 23 8 12 19 18 23 14 5 -4 2 -12
-6 -17 -12 -8 -10 -10 8 -10 26 0 31 -9 34 -70 2 -25 7 -48 12 -51 15 -11 -2
-39 -24 -39 -20 0 -29 -29 -10 -31 6 -1 15 -3 20 -4 6 -1 16 -3 23 -4 7 0 40
-19 74 -40 48 -32 62 -46 67 -73 4 -19 2 -34 -4 -36 -5 -2 -10 -10 -10 -18 0
-8 -9 -14 -21 -14 -11 0 -18 -4 -15 -9 9 -14 -4 -41 -19 -41 -8 0 -16 -4 -19
-9 -8 -13 19 -8 36 6 7 6 27 15 43 19 39 9 42 16 41 73 -2 44 0 47 24 46 14 0
37 -11 52 -25 46 -44 58 -51 76 -47 15 3 15 5 -3 12 -42 17 -135 127 -135 158
1 12 9 40 20 62 27 55 26 75 -5 75 -13 0 -28 6 -32 14 -4 7 -21 16 -38 19 -25
4 -35 -1 -67 -36 -21 -23 -38 -45 -38 -49 0 -5 -4 -8 -10 -8 -5 0 -10 18 -10
40 0 38 13 54 23 28 4 -8 6 -9 6 -2 1 6 -6 17 -14 24 -18 15 -20 40 -2 41 6 0
2 4 -10 9 -13 5 -23 17 -23 27 0 14 -2 15 -9 4 -6 -10 -17 -2 -40 33 -18 25
-36 46 -41 46 -6 0 -10 7 -10 15 0 11 -11 15 -40 15 -40 0 -44 5 -40 43 1 10
-4 24 -10 32 -20 24 57 38 135 24 36 -7 65 -16 65 -21 0 -5 -11 -20 -25 -34
-29 -29 -30 -34 -11 -34 8 0 16 7 20 15 3 8 14 15 24 15 10 0 31 14 47 30 16
17 33 30 38 30 18 0 35 -35 30 -61 -4 -20 2 -31 30 -52 21 -16 49 -27 66 -27
16 0 41 -5 54 -11 16 -7 38 -8 68 -1 l44 10 -42 1 c-24 1 -61 8 -83 17 -22 9
-51 13 -64 10 -35 -9 -56 25 -56 92 0 36 -13 91 -40 169 -22 65 -40 131 -40
149 0 17 -6 44 -14 59 -10 19 -12 36 -5 58 7 25 5 35 -13 54 -18 19 -20 30
-15 78 6 59 -6 68 -16 13 -4 -18 -13 -64 -22 -103 -8 -38 -15 -71 -15 -72 0 0
9 1 21 4 18 5 20 2 17 -27 -4 -40 -25 -50 -37 -18 -9 21 -10 20 -12 -12 -3
-55 1 -84 14 -95 7 -5 11 -21 10 -35 -1 -14 0 -19 3 -12 9 20 28 14 41 -14 9
-19 9 -32 2 -46 -6 -10 -8 -24 -6 -31 14 -39 -55 -66 -83 -32 -7 8 -16 15 -21
15 -17 0 -184 100 -227 136 -23 19 -51 52 -61 73 -17 32 -115 121 -134 121 -4
0 -7 -13 -7 -29 0 -23 5 -30 27 -36 26 -6 27 -8 10 -20 -17 -12 -17 -14 -2
-22 21 -12 9 -43 -16 -43 -12 0 -19 7 -19 18 0 27 -9 32 -31 19 -15 -10 -23
-7 -49 18 -16 16 -30 34 -30 40 0 7 -12 23 -27 37 -40 36 -61 63 -65 85 -2 10
-13 19 -24 21 -12 2 -37 22 -55 44 -19 23 -51 59 -72 80 -32 32 -36 41 -27 58
13 24 12 24 -34 5 -20 -9 -41 -13 -46 -10 -6 4 -10 31 -10 61 0 30 -4 54 -8
54 -5 0 -14 11 -20 24 -9 20 -7 27 11 44 12 11 28 17 35 15 16 -6 37 46 51
127 6 36 19 96 27 133 17 71 14 88 -10 68 -8 -7 -22 -11 -32 -9 -13 2 -22 -9
-34 -42 -9 -25 -22 -45 -30 -45 -29 0 -20 36 25 100 40 55 50 64 70 59 25 -6
29 -2 39 40 l7 29 -28 -18 c-15 -10 -36 -27 -47 -37 -22 -20 -32 -22 -41 -8
-3 6 -1 10 4 10 6 0 11 7 11 15 0 8 12 21 28 29 15 8 39 26 54 40 34 33 42 33
34 1 -5 -20 -3 -25 14 -25 13 0 20 7 20 20 0 34 40 108 76 140 22 19 34 38 34
54 0 24 -2 25 -27 14 -16 -6 -35 -20 -45 -30 -9 -10 -21 -18 -27 -18 -6 0 -11
-9 -11 -20 0 -22 -34 -29 -45 -9 -4 6 -13 8 -20 5 -7 -2 -21 1 -31 8 -16 12
-16 15 4 58 26 53 26 54 5 62 -13 5 -32 -9 -73 -53 -42 -46 -63 -61 -83 -61
-20 0 -27 -5 -27 -19 0 -10 -7 -24 -15 -31 -13 -11 -15 -8 -15 13 0 14 6 27
13 30 9 3 9 7 -1 20 -11 13 -11 21 3 47 9 18 14 38 11 46 -3 7 7 36 21 64 18
35 23 54 16 61 -7 7 -14 7 -22 -3z m-169 -640 c13 -20 17 -21 32 -9 14 12 16
11 16 -4 0 -9 14 -30 31 -46 24 -22 29 -35 27 -60 -2 -18 -12 -37 -22 -43 -14
-9 -22 -5 -42 19 -13 17 -24 36 -24 43 0 14 -19 16 -37 4 -9 -6 0 -21 32 -52
42 -41 44 -45 28 -62 -15 -17 -15 -18 5 -18 12 0 22 5 22 10 0 20 21 9 30 -15
5 -14 14 -25 20 -25 5 0 10 -7 10 -15 0 -8 -4 -15 -10 -15 -19 0 -10 -19 11
-22 12 -2 27 -12 33 -23 6 -11 16 -24 22 -30 7 -5 14 -22 18 -37 5 -23 3 -26
-17 -21 -34 9 -48 24 -41 45 4 12 1 18 -8 16 -7 -2 -15 -16 -18 -33 -4 -21
-11 -31 -27 -33 -60 -9 -205 142 -163 168 18 11 4 44 -16 36 -16 -6 -64 35
-64 55 0 7 7 21 17 31 19 22 10 36 -12 18 -23 -19 -30 -5 -15 30 12 29 25 32
25 8 0 -6 6 -13 13 -15 21 -8 14 46 -8 59 -11 7 -20 16 -20 20 0 14 43 8 54
-7 6 -8 27 -18 46 -21 35 -6 35 -6 13 10 -25 19 -30 42 -10 49 24 10 35 7 49
-15z"/>
<path d="M4385 5483 c21 -53 26 -87 26 -170 -1 -88 -2 -92 -32 -122 -25 -25
-34 -29 -50 -21 -10 6 -19 15 -19 21 0 6 -10 9 -22 7 -20 -3 -23 -8 -20 -47 1
-24 11 -56 21 -70 28 -41 41 -89 41 -154 0 -69 -26 -122 -68 -138 -43 -16 -78
32 -141 193 -13 31 -37 74 -55 95 -79 94 -121 165 -121 206 0 25 -5 42 -14 45
-9 3 -11 -1 -6 -16 5 -18 0 -16 -32 11 -20 18 -53 47 -73 66 -42 41 -75 48
-91 20 -8 -16 -6 -26 8 -46 10 -14 23 -35 30 -46 6 -11 19 -24 27 -29 9 -5 16
-17 16 -26 0 -29 21 -44 35 -25 11 15 15 14 47 -10 19 -15 38 -27 42 -27 8 0
55 -53 69 -77 5 -7 15 -39 23 -70 16 -61 8 -87 -21 -63 -13 11 -15 9 -15 -13
0 -15 -9 -35 -20 -45 -19 -17 -19 -20 -5 -32 12 -10 19 -10 27 -2 15 15 65 16
73 2 4 -6 9 -35 12 -66 3 -30 9 -50 13 -44 5 9 9 9 14 1 11 -17 26 -13 26 6 0
12 3 14 11 6 15 -15 3 -33 -22 -33 -24 0 -25 -16 -1 -29 14 -8 15 -12 5 -22
-11 -11 -13 -10 -13 4 0 9 -5 17 -11 17 -7 0 -9 -9 -6 -22 3 -13 0 -31 -7 -40
-14 -20 -26 -14 -26 13 0 10 -5 21 -12 25 -8 5 -9 -12 -4 -68 6 -73 5 -77 -29
-142 -26 -49 -31 -66 -20 -66 19 0 19 0 -11 -54 -31 -56 -42 -63 -52 -37 -7
20 -9 20 -26 -9 -10 -17 -15 -37 -12 -45 2 -7 -4 -23 -14 -35 -11 -13 -20 -16
-22 -9 -6 17 -45 -5 -52 -29 -8 -26 -91 -92 -115 -92 -27 0 -30 8 -22 55 6 35
10 40 33 40 15 -1 24 3 22 7 -3 4 -14 8 -25 8 -25 0 -28 10 -32 100 -1 41 -6
80 -9 85 -3 6 -9 27 -13 49 -12 60 -24 23 -24 -69 1 -79 -10 -127 -30 -140 -6
-3 -11 -18 -11 -33 0 -50 -41 -105 -97 -134 -52 -26 -213 -175 -213 -197 0
-21 -62 -50 -94 -44 -25 5 -29 3 -19 -7 7 -7 9 -25 6 -41 -7 -36 0 -36 39 0
30 28 101 55 113 43 3 -3 -2 -13 -10 -22 -14 -15 -14 -18 -1 -23 9 -4 17 1 21
14 4 10 12 19 19 19 19 0 56 -39 56 -58 0 -10 5 -23 12 -30 15 -15 3 -27 -34
-36 -19 -4 -30 -1 -36 9 -7 13 -10 11 -21 -11 -16 -35 0 -54 29 -36 47 29 73
10 84 -63 3 -22 3 -34 0 -26 -10 20 -45 53 -51 47 -3 -2 -1 -11 3 -18 10 -14
13 -80 4 -88 -3 -3 -10 -14 -17 -25 -6 -11 -16 -19 -23 -17 -6 1 -9 -2 -5 -8
3 -5 -11 -27 -32 -47 -33 -33 -35 -38 -18 -41 24 -5 45 -22 26 -22 -6 0 -30
10 -51 23 l-39 22 -33 -32 -33 -33 28 0 c17 0 27 5 27 15 0 22 28 18 35 -5 3
-11 18 -23 33 -26 64 -14 70 -25 48 -78 -9 -23 -20 -34 -29 -31 -7 3 -22 -3
-32 -15 -16 -18 -16 -20 -2 -20 21 0 22 -14 1 -31 -10 -8 -18 -9 -22 -3 -10
14 -71 38 -79 30 -3 -3 2 -6 13 -6 15 0 16 -2 5 -9 -9 -6 -22 -6 -32 0 -14 7
-16 5 -11 -13 5 -19 2 -20 -24 -13 -70 18 -84 17 -84 -4 0 -10 -6 -21 -12 -23
-9 -3 -8 -12 5 -31 16 -25 16 -27 -5 -46 -17 -17 -19 -23 -9 -35 7 -8 10 -19
7 -24 -6 -10 19 -68 34 -77 16 -10 33 25 27 59 -3 19 0 39 6 45 9 9 8 17 -2
32 -9 15 -10 24 -2 32 16 16 14 40 -4 33 -14 -5 -19 3 -12 21 1 4 11 6 22 4
45 -7 59 -43 28 -67 -12 -9 -13 -13 -5 -14 13 0 25 8 63 43 11 10 35 21 54 24
29 5 38 0 69 -32 20 -20 36 -41 36 -46 0 -9 -20 -13 -54 -9 -12 1 -16 -3 -11
-10 4 -6 16 -10 26 -7 24 6 42 -17 34 -43 -5 -15 0 -29 16 -46 l23 -25 -23
-45 c-14 -25 -32 -49 -42 -55 -26 -14 -35 8 -13 32 18 20 18 21 -6 11 -14 -6
-34 -13 -45 -17 -19 -6 -19 -7 -2 -16 9 -6 15 -14 12 -18 -2 -5 10 -11 28 -14
27 -3 37 1 64 31 17 19 37 48 44 64 12 30 22 31 73 12 9 -3 16 -1 16 5 0 13
-35 32 -52 29 -21 -5 -11 38 19 83 21 32 24 42 14 49 -8 4 -10 13 -6 20 5 9
20 -1 49 -32 22 -25 59 -55 81 -68 22 -13 48 -32 58 -41 14 -15 22 -16 44 -8
33 12 45 -1 89 -97 16 -35 35 -64 42 -64 7 0 30 11 50 25 20 14 42 25 49 25
20 0 44 -45 64 -122 11 -40 24 -75 29 -76 6 -2 17 -11 26 -19 13 -14 16 -14
29 3 12 17 11 20 -6 26 -10 4 -19 11 -19 16 0 4 23 30 50 57 42 42 53 48 68
38 9 -6 16 -18 16 -27 -2 -19 9 -20 61 -1 23 8 43 11 49 5 11 -11 -52 -70 -76
-70 -11 0 -15 -5 -12 -15 5 -11 20 -3 66 35 33 28 63 48 68 45 4 -3 13 2 20
10 19 23 28 18 22 -11 -3 -19 -9 -24 -23 -21 -20 5 -28 -2 -33 -30 -2 -10 -6
-35 -10 -55 -11 -59 22 -42 58 30 20 39 46 43 46 7 0 -32 12 -32 47 1 26 24
27 27 10 38 -27 21 -20 30 9 11 20 -13 28 -14 40 -4 8 7 12 20 9 30 -4 13 -1
19 9 19 23 0 30 19 9 26 -10 3 -32 12 -48 20 -17 7 -53 18 -80 24 -28 6 -60
18 -72 26 -12 7 -29 14 -37 14 -9 0 -32 9 -53 19 -21 11 -51 25 -68 32 l-30
12 25 6 c14 4 -19 7 -72 7 -54 0 -117 7 -140 14 -120 37 -190 65 -195 77 -4
10 -16 13 -42 8 -20 -3 -49 -1 -65 5 -17 6 -34 7 -44 1 -19 -11 -14 -13 41
-25 15 -4 27 -13 27 -22 0 -12 -7 -14 -32 -9 -18 4 -38 14 -45 22 -7 9 -33 28
-58 42 -25 15 -54 41 -64 61 -77 140 -111 234 -93 259 7 9 27 48 46 88 35 74
63 99 99 89 12 -3 32 -3 44 1 18 4 21 8 13 18 -8 9 -8 15 0 20 5 3 10 10 10
16 0 5 -9 0 -20 -11 -11 -11 -26 -17 -35 -14 -8 4 -22 1 -30 -6 -8 -6 -23 -9
-35 -5 -17 5 -19 9 -9 21 6 8 9 17 5 21 -3 4 4 17 16 30 24 26 74 33 65 9 -7
-19 22 -30 39 -15 11 9 19 6 35 -15 32 -40 51 -34 43 14 -6 36 -5 40 15 40 11
0 21 4 21 10 0 5 14 25 31 45 38 43 78 47 107 10 25 -31 33 -31 66 1 35 36 34
68 -4 91 -37 22 -35 41 7 68 18 11 32 25 33 32 0 23 -22 25 -41 4 -11 -12 -28
-21 -38 -21 -11 0 -22 -7 -25 -16 -8 -21 -26 -8 -26 19 0 48 -14 51 -76 18
-33 -17 -67 -31 -77 -31 -10 0 -48 -18 -84 -40 -61 -37 -133 -54 -133 -32 0
30 152 131 197 132 22 0 38 8 51 25 11 14 26 25 33 25 8 0 29 9 48 21 27 16
39 18 57 11 29 -14 94 17 149 69 45 43 81 59 131 59 19 0 34 5 34 10 0 6 -7
10 -15 10 -8 0 -15 4 -15 10 0 9 115 91 168 119 35 19 49 38 62 84 6 21 20 53
31 70 10 18 19 39 19 48 0 9 11 36 24 60 26 48 76 192 76 221 0 30 122 235
173 290 22 24 34 78 18 78 -13 0 -31 -24 -31 -39 0 -9 -14 -31 -31 -49 -25
-26 -34 -31 -45 -21 -10 8 -14 8 -14 0 0 -6 5 -11 10 -11 17 0 11 -28 -7 -32
-11 -2 -18 -13 -18 -28 0 -22 -4 -25 -34 -23 -18 0 -41 9 -50 18 -15 15 -14
18 14 40 36 30 28 42 -14 21 -35 -18 -36 -17 -56 59 -16 64 -14 75 15 68 11
-3 20 0 20 6 0 6 4 11 9 11 5 0 12 -18 16 -40 5 -29 12 -40 25 -40 10 0 20 -7
24 -15 10 -27 59 -18 89 16 25 29 26 33 11 44 -13 9 -16 22 -12 53 6 43 0 54
-39 66 -20 6 -23 3 -29 -34 -4 -24 -14 -45 -25 -50 -15 -8 -19 -4 -29 26 -7
20 -9 53 -6 74 5 33 2 41 -20 59 -20 15 -27 33 -33 75 -7 52 -32 96 -54 96 -5
0 -6 -8 -2 -17z m-219 -767 c-8 -20 -11 -36 -5 -36 5 0 9 7 9 15 0 8 7 15 15
15 17 0 21 -55 5 -65 -15 -9 -12 -41 5 -55 9 -7 14 -19 11 -27 -3 -7 -2 -13 3
-13 5 0 8 19 8 43 -1 70 12 139 30 159 18 21 53 24 71 6 20 -20 15 -138 -8
-176 -11 -18 -20 -38 -20 -45 0 -30 -117 -167 -143 -167 -6 0 -7 -3 -4 -6 11
-12 -13 -43 -28 -38 -17 7 -20 31 -5 36 6 2 12 30 13 64 2 33 7 65 11 72 4 7
3 12 -2 12 -19 0 -23 108 -6 160 9 28 20 50 25 50 5 0 9 12 9 27 0 19 3 24 11
16 7 -7 6 -21 -5 -47z m294 -10 c0 -24 -29 -96 -51 -128 -20 -27 -28 -52 -46
-140 -3 -14 -16 -37 -29 -49 -13 -12 -24 -28 -24 -34 0 -12 -73 -75 -86 -75
-5 0 -24 -15 -44 -34 -44 -43 -80 -55 -80 -29 0 40 27 75 89 115 53 35 68 51
87 95 16 36 32 57 49 63 28 11 31 20 13 38 -9 9 -9 15 0 24 7 7 12 29 12 49 0
51 8 69 32 69 13 0 18 -5 15 -13 -3 -8 -1 -20 4 -28 6 -10 9 -4 9 20 0 32 23
71 42 71 4 0 8 -6 8 -14z m-520 -501 c10 -13 6 -18 -26 -32 -36 -15 -37 -17
-16 -22 22 -6 25 -12 15 -38 -4 -9 -10 -10 -23 -3 -10 6 -26 7 -36 3 -16 -6
-16 -7 1 -19 17 -13 17 -14 -1 -21 -10 -3 -30 -15 -44 -24 -14 -10 -37 -21
-51 -24 -22 -5 -27 -2 -33 17 -11 42 -6 58 22 70 15 7 34 19 42 28 8 9 26 21
40 28 14 8 41 22 60 33 42 23 35 22 50 4z m-264 -180 c19 -15 19 -15 -1 -30
-13 -10 -29 -14 -45 -10 -14 4 -22 3 -18 -1 11 -10 -11 -34 -32 -34 -10 0 -20
-6 -23 -12 -3 -10 -9 -10 -26 0 -28 16 -41 15 -41 -4 0 -43 -96 -105 -115 -74
-16 25 53 99 93 100 12 0 22 5 22 10 0 6 4 10 10 10 5 0 33 11 62 24 92 41 89
40 114 21z"/>
<path d="M3571 5336 c2 -11 29 -40 59 -64 60 -49 92 -95 106 -157 5 -22 15
-40 22 -40 7 0 44 -36 83 -80 39 -44 81 -91 94 -105 26 -29 65 -99 65 -116 0
-6 7 -17 15 -24 8 -7 15 -10 15 -7 0 16 -46 103 -69 130 -15 18 -37 48 -49 68
-12 19 -31 44 -43 55 -12 10 -30 31 -41 47 l-19 27 22 -2 c16 -2 24 4 29 24
l8 26 -34 -14 c-18 -8 -36 -14 -38 -14 -10 0 -29 44 -31 70 -1 14 -3 33 -3 43
-1 9 -9 17 -17 17 -9 0 -20 11 -24 24 -5 13 -17 26 -25 29 -9 4 -16 12 -16 20
0 7 -13 23 -30 35 -31 23 -41 27 -39 15 4 -22 -3 -24 -22 -7 -21 19 -21 19
-18 0z"/>
<path d="M3110 2231 c0 -6 4 -12 9 -15 17 -11 21 -83 6 -112 -8 -16 -15 -35
-15 -41 0 -7 -10 -23 -22 -35 -32 -32 -34 -58 -3 -58 13 0 28 6 32 13 10 16
63 57 74 57 4 0 10 -8 12 -17 3 -13 5 -14 6 -3 0 8 25 26 54 39 28 13 70 32
93 42 51 24 54 24 54 -2 0 -15 5 -19 15 -15 10 4 20 -3 27 -19 6 -14 15 -25
20 -25 4 0 8 -8 8 -17 0 -10 9 -31 21 -48 l20 -30 -6 40 c-10 60 -37 158 -47
172 -6 7 -7 17 -4 22 4 5 2 12 -4 16 -5 3 -12 -5 -16 -19 -4 -18 -16 -27 -52
-36 -26 -7 -65 -21 -88 -31 -55 -26 -65 -23 -29 6 23 19 26 25 12 25 -10 0
-28 -9 -40 -20 -31 -29 -49 -21 -74 32 -22 46 -63 97 -63 79z"/>
</g>
</svg>
